<svg xmlns="http://www.w3.org/2000/svg" xmlns:xlink="http://www.w3.org/1999/xlink"><symbol id="logo" viewBox="0 0 120 23"><g fill="none"><path d="M5.78473 22.8115C4.58873 22.8115 3.55139 22.623 2.67269 22.2459C1.794 21.8689 1.12277 21.2027 0.65902 20.2475C0.219673 19.2923 0 17.9475 0 16.2131V14.9311C0.585796 14.9311 1.1838 14.9311 1.794 14.9311C2.4042 14.9311 3.0022 14.9311 3.588 14.9311V16.5148C3.588 17.5705 3.68563 18.3874 3.8809 18.9656C4.07616 19.5437 4.34465 19.9459 4.68637 20.1721C5.02808 20.3732 5.41861 20.4738 5.85796 20.4738C6.56579 20.4738 7.12718 20.235 7.54212 19.7574C7.98147 19.2546 8.20114 18.3246 8.20114 16.9672C8.20114 15.9617 8.05469 15.2077 7.76179 14.7049C7.46889 14.2022 7.00514 13.8 6.37053 13.4984C5.76032 13.1716 4.96706 12.8071 3.99073 12.4049C3.18526 12.0279 2.48963 11.588 1.90384 11.0852C1.31804 10.5825 0.878693 9.94153 0.585796 9.1623C0.292898 8.38306 0.146449 7.4153 0.146449 6.25902C0.146449 4.85137 0.317306 3.70765 0.65902 2.82787C1.02514 1.92295 1.63535 1.2694 2.48963 0.867213C3.34392 0.439892 4.4911 0.226231 5.93118 0.226231C7.7862 0.226231 9.20187 0.666121 10.1782 1.5459C11.1545 2.40055 11.6427 3.65738 11.6427 5.31639V7.91803C11.0813 7.91803 10.5077 7.91803 9.92191 7.91803C9.36053 7.91803 8.78693 7.91803 8.20114 7.91803V6.37213C8.20114 5.21585 8.01808 4.38634 7.65196 3.88361C7.31024 3.35574 6.74885 3.0918 5.96779 3.0918C5.16232 3.0918 4.57653 3.34317 4.21041 3.8459C3.86869 4.3235 3.69784 5.09016 3.69784 6.1459C3.69784 7.05082 3.86869 7.75465 4.21041 8.25738C4.55212 8.73497 4.99147 9.11202 5.52845 9.38853C6.08983 9.66503 6.66343 9.91639 7.24922 10.1426C8.34759 10.5699 9.23849 11.0098 9.92191 11.4623C10.6053 11.9148 11.1057 12.518 11.423 13.2721C11.7403 14.0262 11.899 15.0945 11.899 16.477C11.899 18.0607 11.6427 19.3175 11.1301 20.2475C10.642 21.1525 9.93412 21.806 9.00661 22.2082C8.10351 22.6104 7.02955 22.8115 5.78473 22.8115Z" fill="currentColor"/><path d="M21.1908 23C20.3609 23 19.592 22.9372 18.8842 22.8115C18.1763 22.6858 17.5661 22.4344 17.0536 22.0574C16.541 21.6803 16.1383 21.1148 15.8454 20.3607C15.5525 19.6066 15.406 18.5885 15.406 17.3066V0.263936H18.9208V18.2492C18.9208 18.9279 19.0184 19.4557 19.2137 19.8328C19.4334 20.1847 19.7141 20.4235 20.0558 20.5492C20.3975 20.6749 20.7758 20.7377 21.1908 20.7377C21.6057 20.7377 21.984 20.6749 22.3257 20.5492C22.6674 20.4235 22.9359 20.1847 23.1312 19.8328C23.3509 19.4557 23.4607 18.9279 23.4607 18.2492V0.263936H26.9389V17.2689C26.9389 18.5508 26.7924 19.5814 26.4995 20.3607C26.231 21.1148 25.8405 21.6803 25.3279 22.0574C24.8154 22.4344 24.2052 22.6858 23.4973 22.8115C22.7895 22.9372 22.0206 23 21.1908 23Z" fill="currentColor"/><path d="M31.2648 22.5475V0.263936H38.5873C39.9541 0.263936 41.0037 0.578143 41.7359 1.20656C42.4682 1.83497 42.8343 2.76503 42.8343 3.99672V7.95574C42.8343 8.91093 42.7123 9.80328 42.4682 10.6328C42.2485 11.4372 41.8092 12.0907 41.1501 12.5934C40.5155 13.0962 39.588 13.3475 38.3676 13.3475H34.9261V22.5475H31.2648ZM34.9261 11.3115H37.1594C37.8917 11.3115 38.4408 11.0224 38.807 10.4443C39.1731 9.84098 39.3561 8.87322 39.3561 7.54098V5.54262C39.3561 4.3612 39.1975 3.51913 38.8802 3.01639C38.5629 2.51366 38.1235 2.2623 37.5621 2.2623H34.9261V11.3115Z" fill="currentColor"/><path d="M46.2987 22.5475V0.263936H56.0376V2.82787H49.96V9.57705H54.9758V12.4049H49.96V20.059H56.0376V22.5475H46.2987Z" fill="currentColor"/><path d="M59.3662 22.5475V0.263936H66.835C68.2019 0.263936 69.2515 0.578143 69.9837 1.20656C70.7403 1.83497 71.1187 2.76503 71.1187 3.99672V7.54098C71.1187 8.77268 70.7892 9.77814 70.1301 10.5574C69.4711 11.3115 68.4948 11.7262 67.2012 11.8016C68.031 11.877 68.6168 12.1536 68.9585 12.6311C69.3247 13.1087 69.6542 13.8503 69.9471 14.8557L72.034 22.5475H68.1531L66.4323 15.1197C66.2615 14.4913 66.0662 13.9383 65.8465 13.4607C65.6268 12.9831 65.2729 12.7443 64.7848 12.7443H62.9908V22.5475H59.3662ZM62.9908 10.218H65.3339C66.1882 10.218 66.7862 9.9918 67.1279 9.53934C67.4941 9.08689 67.6771 8.39563 67.6771 7.46557V4.63771C67.6771 3.8082 67.5063 3.20492 67.1646 2.82787C66.8472 2.45082 66.3469 2.2623 65.6635 2.2623H62.9908V10.218Z" fill="currentColor"/><path d="M79.8687 22.9623C79.0388 22.9623 78.2578 22.824 77.5255 22.5475C76.7933 22.2962 76.1953 21.7809 75.7315 21.0016C75.2922 20.1973 75.0725 19.0033 75.0725 17.4197V4.97705C75.0725 3.61967 75.3166 2.58907 75.8048 1.88525C76.2929 1.15628 76.9763 0.666121 77.855 0.414755C78.7337 0.138252 79.7467 0 80.8939 0C82.041 0 83.054 0.138252 83.9327 0.414755C84.8114 0.691258 85.4948 1.19399 85.983 1.92295C86.4955 2.62678 86.7518 3.64481 86.7518 4.97705V7.99344H83.3469V4.82623C83.3469 4.07213 83.237 3.50656 83.0174 3.12951C82.8221 2.75246 82.5414 2.50109 82.1753 2.37541C81.8336 2.24973 81.4186 2.18689 80.9305 2.18689C80.4911 2.18689 80.0884 2.24973 79.7223 2.37541C79.3561 2.50109 79.0632 2.75246 78.8436 3.12951C78.6483 3.50656 78.5507 4.07213 78.5507 4.82623V18.2115C78.5507 18.9656 78.6483 19.5311 78.8436 19.9082C79.0632 20.2852 79.3561 20.5366 79.7223 20.6623C80.0884 20.788 80.4911 20.8508 80.9305 20.8508C81.6383 20.8508 82.2119 20.6372 82.6512 20.2098C83.115 19.7574 83.3469 19.0913 83.3469 18.2115V13.6869H81.1868V11.6131H86.7518V22.5475H84.1157L83.9327 20.6623C83.8839 20.7628 83.8228 20.876 83.7496 21.0016C83.6764 21.1022 83.6154 21.1902 83.5666 21.2656C83.2737 21.718 82.8343 22.1202 82.2485 22.4721C81.6871 22.7989 80.8939 22.9623 79.8687 22.9623Z" fill="currentColor"/><path d="M93.3929 22.5475V12.9705L89.3656 0.263936H92.8437L95.1137 7.88033L95.2968 9.04918L95.5164 7.88033L97.8962 0.263936H101.155L96.9077 13.159V22.5475H93.3929Z" fill="currentColor"/><path d="M104.11 22.5475V0.263936H108.431L112.055 16.1L115.716 0.263936H120V22.5475H116.888V5.3541L113.263 22.5475H110.847L107.222 5.3541V22.5475H104.11Z" fill="currentColor"/></g></symbol><symbol id="play" viewBox="0 0 13 15"><g fill="none"><path d="M13 7.5L0.249999 14.8612L0.25 0.138783L13 7.5Z" fill="currentColor"/></g></symbol><symbol id="rub" viewBox="0 0 30 42"><g fill="none"><path fill-rule="evenodd" clip-rule="evenodd" d="M0 17H6V23H0V17Z" fill="#102654"/><path fill-rule="evenodd" clip-rule="evenodd" d="M3.65854 28.3214V18H9.65854V28.3214H21V34.3214H9.65854V42H3.65854V34.3214H0V28.3214H3.65854Z" fill="#102654"/><path fill-rule="evenodd" clip-rule="evenodd" d="M18.5 6H10V17H18.5C21.5376 17 24 14.5376 24 11.5C24 8.46243 21.5376 6 18.5 6ZM4 0V23H18.5C24.8513 23 30 17.8513 30 11.5C30 5.14873 24.8513 0 18.5 0H4Z" fill="#102654"/></g></symbol><symbol id="social-ok" viewBox="0 0 25 25"><g fill="none"><path d="M12.5 0C5.59692 0 0 5.59692 0 12.5C0 19.4031 5.59692 25 12.5 25C19.4031 25 25 19.4031 25 12.5C25 5.59692 19.4031 0 12.5 0Z" fill="currentColor"/><path d="M12.6803 6.88903C13.5788 6.88903 14.3095 7.64334 14.3095 8.57085C14.3095 9.49557 13.5788 10.2499 12.6803 10.2499C11.7818 10.2499 11.0511 9.49557 11.0511 8.57085C11.0511 7.64334 11.7818 6.88903 12.6803 6.88903ZM12.6803 12.6301C14.8507 12.6301 16.6152 10.8086 16.6152 8.57085C16.6152 6.33029 14.8507 4.50879 12.6803 4.50879C10.5098 4.50879 8.748 6.33029 8.748 8.57085C8.748 10.8086 10.5098 12.6301 12.6803 12.6301ZM14.2716 15.9435C15.0726 15.7535 15.8439 15.4266 16.5557 14.9657C17.0942 14.6164 17.2566 13.8817 16.9183 13.3258C16.5773 12.767 15.8683 12.5994 15.327 12.9514C13.7168 13.9962 11.6437 13.9962 10.0308 12.9514C9.49223 12.5994 8.78047 12.767 8.44219 13.3258C8.1039 13.8817 8.26628 14.6164 8.80483 14.9657C9.51659 15.4266 10.2879 15.7535 11.089 15.9435L8.88873 18.212C8.43948 18.6757 8.43948 19.43 8.88873 19.8938C9.11606 20.1257 9.40834 20.243 9.70332 20.243C9.99831 20.243 10.2933 20.1257 10.5206 19.8938L12.6803 17.6644L14.8426 19.8938C15.2918 20.3603 16.0198 20.3603 16.4718 19.8938C16.921 19.43 16.921 18.6757 16.4718 18.212L14.2716 15.9435Z" fill="#030A1A"/></g></symbol><symbol id="social-reddit" viewBox="0 0 25 25"><g fill="none"><path d="M12.5 0C5.59692 0 0 5.59692 0 12.5C0 19.4031 5.59692 25 12.5 25C19.4031 25 25 19.4031 25 12.5C25 5.59692 19.4031 0 12.5 0Z" fill="currentColor"/><path d="M13.851 5.55566C13.4056 5.55566 12.9877 5.7816 12.7196 6.10741C12.4516 6.43323 12.3038 6.8304 12.1962 7.24897C12.0252 7.92201 11.9724 8.66877 11.9597 9.34181C10.7081 9.42505 9.57457 9.79606 8.63316 10.3692C8.2511 10.0481 7.79095 9.86978 7.3498 9.87454C6.84743 9.87929 6.3704 10.0957 6.01579 10.5404C5.33823 11.3895 5.41632 12.7784 6.20154 13.6036C6.15299 13.8581 6.1171 14.1197 6.1171 14.3837C6.1171 17.1805 8.9751 19.4446 12.5001 19.4446C16.0251 19.4446 18.8831 17.1781 18.8831 14.3837C18.8831 14.1197 18.8472 13.8581 18.7987 13.6036C19.5839 12.7784 19.662 11.3895 18.9844 10.5404C18.6298 10.0957 18.1528 9.87929 17.6504 9.87454C17.2093 9.86978 16.7491 10.0481 16.3671 10.3692C15.4299 9.79843 14.3027 9.42743 13.0574 9.34181C13.0742 8.72109 13.1186 8.07659 13.2431 7.59143C13.3212 7.28702 13.4141 7.06584 13.5133 6.94455C13.6125 6.82326 13.6843 6.77332 13.851 6.77332C14.212 6.77332 14.2584 6.88985 14.4758 7.17286C14.5856 7.31556 14.7122 7.49393 14.9148 7.66754C15.1175 7.84115 15.4172 7.99098 15.7423 7.99098V6.77332C15.6515 6.77332 15.6346 6.77094 15.5734 6.71624C15.5122 6.66154 15.4278 6.5355 15.3032 6.37378C15.0542 6.04796 14.5708 5.55566 13.851 5.55566ZM17.3634 5.66982C16.5233 5.66982 15.8436 6.43561 15.8436 7.38215C15.8436 8.32869 16.5233 9.09448 17.3634 9.09448C18.2034 9.09448 18.8831 8.32869 18.8831 7.38215C18.8831 6.43561 18.2034 5.66982 17.3634 5.66982ZM17.3634 6.27865C17.9037 6.27865 18.3428 6.77332 18.3428 7.38215C18.3428 7.99098 17.9037 8.48565 17.3634 8.48565C16.823 8.48565 16.3839 7.99098 16.3839 7.38215C16.3839 6.77332 16.823 6.27865 17.3634 6.27865ZM12.5001 10.2931C15.4911 10.2931 18.0219 12.1695 18.0219 14.3837C18.0219 16.6002 15.4911 18.4742 12.5001 18.4742C9.50913 18.4742 6.9783 16.6002 6.9783 14.3837C6.9783 12.1695 9.50913 10.2931 12.5001 10.2931ZM7.36669 10.8449C7.51655 10.8472 7.67275 10.8853 7.82262 10.959C7.28015 11.4228 6.84955 11.9555 6.55615 12.5572C6.35351 12.0863 6.40839 11.4989 6.65746 11.1873C6.83899 10.959 7.09017 10.8425 7.36669 10.8449ZM17.6335 10.8449C17.91 10.8425 18.1612 10.959 18.3428 11.1873C18.5918 11.4989 18.6467 12.0863 18.4441 12.5572C18.1507 11.9555 17.7201 11.4228 17.1776 10.959C17.3275 10.8853 17.4837 10.8472 17.6335 10.8449ZM10.3387 12.3669C9.79831 12.3669 9.35927 12.8616 9.35927 13.4704C9.35927 14.0793 9.79831 14.5739 10.3387 14.5739C10.879 14.5739 11.3181 14.0793 11.3181 13.4704C11.3181 12.8616 10.879 12.3669 10.3387 12.3669ZM14.6616 12.3669C14.1212 12.3669 13.6821 12.8616 13.6821 13.4704C13.6821 14.0793 14.1212 14.5739 14.6616 14.5739C15.2019 14.5739 15.641 14.0793 15.641 13.4704C15.641 12.8616 15.2019 12.3669 14.6616 12.3669ZM9.81519 16.115C10.1593 16.9165 11.2231 17.6942 12.5001 17.6942C13.7771 17.6942 14.8579 16.9165 15.2019 16.115C14.5771 16.5693 13.5914 16.8761 12.5001 16.8761C11.4088 16.8761 10.44 16.5693 9.81519 16.115Z" fill="#030A1A"/></g></symbol><symbol id="social-vk" viewBox="0 0 25 25"><g fill="none"><path d="M12.5 0C5.59692 0 0 5.59692 0 12.5C0 19.4031 5.59692 25 12.5 25C19.4031 25 25 19.4031 25 12.5C25 5.59692 19.4031 0 12.5 0Z" fill="currentColor"/><path d="M13.7227 15.0518C14.1654 14.9087 14.7322 15.9964 15.3355 16.4127C15.7884 16.728 16.1352 16.6599 16.1352 16.6599L17.7434 16.6368C17.7434 16.6368 18.5838 16.5849 18.1865 15.9172C18.1536 15.8616 17.9536 15.4222 16.9895 14.5179C15.9815 13.5718 16.1181 13.7251 17.3317 12.0896C18.0712 11.0927 18.3671 10.4838 18.2745 10.2244C18.1856 9.97486 17.6424 10.0397 17.6424 10.0397L15.8305 10.0522C15.6541 10.0527 15.5045 10.1073 15.4365 10.2907C15.4351 10.2925 15.1489 11.0621 14.7674 11.7164C13.9612 13.1005 13.6394 13.1741 13.506 13.0875C13.1999 12.887 13.2773 12.2832 13.2773 11.8539C13.2773 10.5125 13.4773 9.9531 12.8855 9.80863C12.6878 9.76047 12.5433 9.72898 12.0391 9.72435C11.3945 9.71463 10.8472 9.72435 10.5369 9.8767C10.3309 9.97996 10.173 10.2064 10.2688 10.2194C10.3892 10.2356 10.6592 10.2934 10.8036 10.4907C10.9893 10.7463 10.9838 11.3191 10.9838 11.3191C10.9838 11.3191 11.0898 12.8986 10.7337 13.0944C10.4892 13.2287 10.1549 12.9546 9.43578 11.6979C9.06858 11.0552 8.79121 10.3448 8.79121 10.3448C8.79121 10.3448 8.7375 10.2129 8.64026 10.1406C8.52449 10.055 8.36243 10.0277 8.36243 10.0277L6.64265 10.0388C6.64265 10.0388 6.38427 10.0462 6.28935 10.1601C6.20507 10.261 6.2824 10.4694 6.2824 10.4694C6.2824 10.4694 7.62942 13.6557 9.15471 15.2606C10.5531 16.734 12.1423 16.6363 12.1423 16.6363H12.8624C12.8624 16.6363 13.0795 16.6113 13.1907 16.4918C13.2944 16.3807 13.2898 16.1719 13.2898 16.1719C13.2898 16.1719 13.2754 15.1953 13.7227 15.0518Z" fill="#030A1A"/></g></symbol></svg>