<svg width="25" height="25" viewBox="0 0 25 25" fill="none" xmlns="http://www.w3.org/2000/svg">
<path d="M12.5 0C5.59692 0 0 5.59692 0 12.5C0 19.4031 5.59692 25 12.5 25C19.4031 25 25 19.4031 25 12.5C25 5.59692 19.4031 0 12.5 0Z" fill="white"/>
<path d="M13.851 5.55566C13.4056 5.55566 12.9877 5.7816 12.7196 6.10741C12.4516 6.43323 12.3038 6.8304 12.1962 7.24897C12.0252 7.92201 11.9724 8.66877 11.9597 9.34181C10.7081 9.42505 9.57457 9.79606 8.63316 10.3692C8.2511 10.0481 7.79095 9.86978 7.3498 9.87454C6.84743 9.87929 6.3704 10.0957 6.01579 10.5404C5.33823 11.3895 5.41632 12.7784 6.20154 13.6036C6.15299 13.8581 6.1171 14.1197 6.1171 14.3837C6.1171 17.1805 8.9751 19.4446 12.5001 19.4446C16.0251 19.4446 18.8831 17.1781 18.8831 14.3837C18.8831 14.1197 18.8472 13.8581 18.7987 13.6036C19.5839 12.7784 19.662 11.3895 18.9844 10.5404C18.6298 10.0957 18.1528 9.87929 17.6504 9.87454C17.2093 9.86978 16.7491 10.0481 16.3671 10.3692C15.4299 9.79843 14.3027 9.42743 13.0574 9.34181C13.0742 8.72109 13.1186 8.07659 13.2431 7.59143C13.3212 7.28702 13.4141 7.06584 13.5133 6.94455C13.6125 6.82326 13.6843 6.77332 13.851 6.77332C14.212 6.77332 14.2584 6.88985 14.4758 7.17286C14.5856 7.31556 14.7122 7.49393 14.9148 7.66754C15.1175 7.84115 15.4172 7.99098 15.7423 7.99098V6.77332C15.6515 6.77332 15.6346 6.77094 15.5734 6.71624C15.5122 6.66154 15.4278 6.5355 15.3032 6.37378C15.0542 6.04796 14.5708 5.55566 13.851 5.55566ZM17.3634 5.66982C16.5233 5.66982 15.8436 6.43561 15.8436 7.38215C15.8436 8.32869 16.5233 9.09448 17.3634 9.09448C18.2034 9.09448 18.8831 8.32869 18.8831 7.38215C18.8831 6.43561 18.2034 5.66982 17.3634 5.66982ZM17.3634 6.27865C17.9037 6.27865 18.3428 6.77332 18.3428 7.38215C18.3428 7.99098 17.9037 8.48565 17.3634 8.48565C16.823 8.48565 16.3839 7.99098 16.3839 7.38215C16.3839 6.77332 16.823 6.27865 17.3634 6.27865ZM12.5001 10.2931C15.4911 10.2931 18.0219 12.1695 18.0219 14.3837C18.0219 16.6002 15.4911 18.4742 12.5001 18.4742C9.50913 18.4742 6.9783 16.6002 6.9783 14.3837C6.9783 12.1695 9.50913 10.2931 12.5001 10.2931ZM7.36669 10.8449C7.51655 10.8472 7.67275 10.8853 7.82262 10.959C7.28015 11.4228 6.84955 11.9555 6.55615 12.5572C6.35351 12.0863 6.40839 11.4989 6.65746 11.1873C6.83899 10.959 7.09017 10.8425 7.36669 10.8449ZM17.6335 10.8449C17.91 10.8425 18.1612 10.959 18.3428 11.1873C18.5918 11.4989 18.6467 12.0863 18.4441 12.5572C18.1507 11.9555 17.7201 11.4228 17.1776 10.959C17.3275 10.8853 17.4837 10.8472 17.6335 10.8449ZM10.3387 12.3669C9.79831 12.3669 9.35927 12.8616 9.35927 13.4704C9.35927 14.0793 9.79831 14.5739 10.3387 14.5739C10.879 14.5739 11.3181 14.0793 11.3181 13.4704C11.3181 12.8616 10.879 12.3669 10.3387 12.3669ZM14.6616 12.3669C14.1212 12.3669 13.6821 12.8616 13.6821 13.4704C13.6821 14.0793 14.1212 14.5739 14.6616 14.5739C15.2019 14.5739 15.641 14.0793 15.641 13.4704C15.641 12.8616 15.2019 12.3669 14.6616 12.3669ZM9.81519 16.115C10.1593 16.9165 11.2231 17.6942 12.5001 17.6942C13.7771 17.6942 14.8579 16.9165 15.2019 16.115C14.5771 16.5693 13.5914 16.8761 12.5001 16.8761C11.4088 16.8761 10.44 16.5693 9.81519 16.115Z" fill="#030A1A"/>
</svg>
